<mxfile host="app.diagrams.net" modified="2023-10-10T05:19:41.696Z" agent="Mozilla/5.0 (X11; Linux x86_64) AppleWebKit/537.36 (KHTML, like Gecko) Chrome/115.0.0.0 Safari/537.36" etag="GnwEY_LjHeQ9UiF72Vaq" version="21.7.4" type="github">
  <diagram name="Page-1" id="e56a1550-8fbb-45ad-956c-1786394a9013">
    <mxGraphModel dx="1006" dy="573" grid="1" gridSize="10" guides="1" tooltips="1" connect="1" arrows="1" fold="1" page="1" pageScale="1" pageWidth="1100" pageHeight="850" background="none" math="0" shadow="0">
      <root>
        <mxCell id="0" />
        <mxCell id="1" parent="0" />
        <mxCell id="G2uAnkd9o9rANrzZQ9Fx-1" value="商品" style="whiteSpace=wrap;html=1;align=center;fillColor=none;fontSize=15;labelBorderColor=none;labelBackgroundColor=none;" parent="1" vertex="1">
          <mxGeometry x="480" y="240" width="80" height="40" as="geometry" />
        </mxCell>
        <mxCell id="G2uAnkd9o9rANrzZQ9Fx-2" value="供应商" style="whiteSpace=wrap;html=1;align=center;fillColor=none;fontSize=15;labelBorderColor=none;labelBackgroundColor=none;" parent="1" vertex="1">
          <mxGeometry x="240" y="240" width="80" height="40" as="geometry" />
        </mxCell>
        <mxCell id="G2uAnkd9o9rANrzZQ9Fx-3" value="客户" style="whiteSpace=wrap;html=1;align=center;fillColor=none;fontSize=15;labelBorderColor=none;labelBackgroundColor=none;" parent="1" vertex="1">
          <mxGeometry x="240" y="560" width="80" height="40" as="geometry" />
        </mxCell>
        <mxCell id="G2uAnkd9o9rANrzZQ9Fx-4" value="订单" style="whiteSpace=wrap;html=1;align=center;fillColor=none;fontSize=15;labelBorderColor=none;labelBackgroundColor=none;" parent="1" vertex="1">
          <mxGeometry x="240" y="400" width="80" height="40" as="geometry" />
        </mxCell>
        <mxCell id="G2uAnkd9o9rANrzZQ9Fx-5" value="订单细则" style="whiteSpace=wrap;html=1;align=center;fillColor=none;fontSize=15;labelBorderColor=none;labelBackgroundColor=none;" parent="1" vertex="1">
          <mxGeometry x="480" y="400" width="80" height="40" as="geometry" />
        </mxCell>
        <mxCell id="G2uAnkd9o9rANrzZQ9Fx-7" value="编号" style="ellipse;whiteSpace=wrap;html=1;align=center;fontSize=15;fillColor=none;labelBorderColor=none;labelBackgroundColor=none;" parent="1" vertex="1">
          <mxGeometry x="280" y="180" width="40" height="40" as="geometry" />
        </mxCell>
        <mxCell id="G2uAnkd9o9rANrzZQ9Fx-9" value="名称" style="ellipse;whiteSpace=wrap;html=1;align=center;fontSize=15;fillColor=none;labelBorderColor=none;labelBackgroundColor=none;" parent="1" vertex="1">
          <mxGeometry x="240" y="180" width="40" height="40" as="geometry" />
        </mxCell>
        <mxCell id="G2uAnkd9o9rANrzZQ9Fx-14" value="单价" style="ellipse;whiteSpace=wrap;html=1;align=center;fontSize=15;fillColor=none;labelBorderColor=none;labelBackgroundColor=none;" parent="1" vertex="1">
          <mxGeometry x="500" y="180" width="40" height="40" as="geometry" />
        </mxCell>
        <mxCell id="G2uAnkd9o9rANrzZQ9Fx-15" value="电话" style="ellipse;whiteSpace=wrap;html=1;align=center;fontSize=15;fillColor=none;labelBorderColor=none;labelBackgroundColor=none;" parent="1" vertex="1">
          <mxGeometry x="180" y="180" width="40" height="40" as="geometry" />
        </mxCell>
        <mxCell id="G2uAnkd9o9rANrzZQ9Fx-16" value="地址" style="ellipse;whiteSpace=wrap;html=1;align=center;fontSize=15;fillColor=none;labelBorderColor=none;labelBackgroundColor=none;" parent="1" vertex="1">
          <mxGeometry x="180" y="240" width="40" height="40" as="geometry" />
        </mxCell>
        <mxCell id="G2uAnkd9o9rANrzZQ9Fx-17" value="编号" style="ellipse;whiteSpace=wrap;html=1;align=center;fontSize=15;fillColor=none;labelBorderColor=none;labelBackgroundColor=none;" parent="1" vertex="1">
          <mxGeometry x="580" y="180" width="40" height="40" as="geometry" />
        </mxCell>
        <mxCell id="G2uAnkd9o9rANrzZQ9Fx-18" value="名称" style="ellipse;whiteSpace=wrap;html=1;align=center;fontSize=15;fillColor=none;labelBorderColor=none;labelBackgroundColor=none;" parent="1" vertex="1">
          <mxGeometry x="580" y="240" width="40" height="40" as="geometry" />
        </mxCell>
        <mxCell id="G2uAnkd9o9rANrzZQ9Fx-22" value="" style="endArrow=none;html=1;rounded=0;exitX=1;exitY=0.5;exitDx=0;exitDy=0;entryX=0;entryY=0.5;entryDx=0;entryDy=0;fontSize=15;labelBorderColor=none;labelBackgroundColor=none;" parent="1" source="G2uAnkd9o9rANrzZQ9Fx-2" target="G2uAnkd9o9rANrzZQ9Fx-23" edge="1">
          <mxGeometry relative="1" as="geometry">
            <mxPoint x="440" y="390" as="sourcePoint" />
            <mxPoint x="370" y="260" as="targetPoint" />
          </mxGeometry>
        </mxCell>
        <mxCell id="BHzmaDem7Dedp6-Bpxuv-44" value="n" style="edgeLabel;html=1;align=center;verticalAlign=middle;resizable=0;points=[];fontSize=15;labelBorderColor=none;labelBackgroundColor=default;" vertex="1" connectable="0" parent="G2uAnkd9o9rANrzZQ9Fx-22">
          <mxGeometry x="-0.0741" relative="1" as="geometry">
            <mxPoint as="offset" />
          </mxGeometry>
        </mxCell>
        <mxCell id="G2uAnkd9o9rANrzZQ9Fx-23" value="供应" style="shape=rhombus;perimeter=rhombusPerimeter;whiteSpace=wrap;html=1;align=center;fontSize=15;fillColor=none;labelBorderColor=none;labelBackgroundColor=none;" parent="1" vertex="1">
          <mxGeometry x="360" y="240" width="80" height="40" as="geometry" />
        </mxCell>
        <mxCell id="G2uAnkd9o9rANrzZQ9Fx-24" value="" style="endArrow=none;html=1;rounded=0;exitX=1;exitY=0.5;exitDx=0;exitDy=0;entryX=0;entryY=0.5;entryDx=0;entryDy=0;fontSize=15;labelBorderColor=none;labelBackgroundColor=none;" parent="1" source="G2uAnkd9o9rANrzZQ9Fx-23" target="G2uAnkd9o9rANrzZQ9Fx-1" edge="1">
          <mxGeometry relative="1" as="geometry">
            <mxPoint x="440" y="390" as="sourcePoint" />
            <mxPoint x="600" y="390" as="targetPoint" />
          </mxGeometry>
        </mxCell>
        <mxCell id="G2uAnkd9o9rANrzZQ9Fx-35" value="m" style="edgeLabel;html=1;align=center;verticalAlign=middle;resizable=0;points=[];fontSize=15;labelBorderColor=none;labelBackgroundColor=default;" parent="G2uAnkd9o9rANrzZQ9Fx-24" vertex="1" connectable="0">
          <mxGeometry x="-0.1153" y="1" relative="1" as="geometry">
            <mxPoint x="-1" as="offset" />
          </mxGeometry>
        </mxCell>
        <mxCell id="G2uAnkd9o9rANrzZQ9Fx-25" value="" style="endArrow=none;html=1;rounded=0;exitX=0.5;exitY=1;exitDx=0;exitDy=0;entryX=0.5;entryY=0;entryDx=0;entryDy=0;fontSize=15;labelBorderColor=none;labelBackgroundColor=none;" parent="1" source="G2uAnkd9o9rANrzZQ9Fx-14" target="G2uAnkd9o9rANrzZQ9Fx-1" edge="1">
          <mxGeometry relative="1" as="geometry">
            <mxPoint x="430" y="270" as="sourcePoint" />
            <mxPoint x="490" y="270" as="targetPoint" />
          </mxGeometry>
        </mxCell>
        <mxCell id="G2uAnkd9o9rANrzZQ9Fx-26" value="" style="endArrow=none;html=1;rounded=0;exitX=0.5;exitY=1;exitDx=0;exitDy=0;entryX=0.75;entryY=0;entryDx=0;entryDy=0;fontSize=15;labelBorderColor=none;labelBackgroundColor=none;" parent="1" source="G2uAnkd9o9rANrzZQ9Fx-7" target="G2uAnkd9o9rANrzZQ9Fx-2" edge="1">
          <mxGeometry relative="1" as="geometry">
            <mxPoint x="520" y="280" as="sourcePoint" />
            <mxPoint x="580" y="280" as="targetPoint" />
          </mxGeometry>
        </mxCell>
        <mxCell id="G2uAnkd9o9rANrzZQ9Fx-27" value="" style="endArrow=none;html=1;rounded=0;exitX=0.5;exitY=1;exitDx=0;exitDy=0;entryX=0.25;entryY=0;entryDx=0;entryDy=0;fontSize=15;labelBorderColor=none;labelBackgroundColor=none;" parent="1" source="G2uAnkd9o9rANrzZQ9Fx-9" target="G2uAnkd9o9rANrzZQ9Fx-2" edge="1">
          <mxGeometry relative="1" as="geometry">
            <mxPoint x="530" y="290" as="sourcePoint" />
            <mxPoint x="590" y="290" as="targetPoint" />
          </mxGeometry>
        </mxCell>
        <mxCell id="G2uAnkd9o9rANrzZQ9Fx-29" value="" style="endArrow=none;html=1;rounded=0;entryX=0;entryY=0;entryDx=0;entryDy=0;exitX=1;exitY=1;exitDx=0;exitDy=0;fontSize=15;labelBorderColor=none;labelBackgroundColor=none;" parent="1" source="G2uAnkd9o9rANrzZQ9Fx-15" target="G2uAnkd9o9rANrzZQ9Fx-2" edge="1">
          <mxGeometry relative="1" as="geometry">
            <mxPoint x="220" y="220" as="sourcePoint" />
            <mxPoint x="210" y="240" as="targetPoint" />
          </mxGeometry>
        </mxCell>
        <mxCell id="G2uAnkd9o9rANrzZQ9Fx-30" value="" style="endArrow=none;html=1;rounded=0;exitX=0;exitY=0.5;exitDx=0;exitDy=0;entryX=1;entryY=0.5;entryDx=0;entryDy=0;fontSize=15;labelBorderColor=none;labelBackgroundColor=none;" parent="1" source="G2uAnkd9o9rANrzZQ9Fx-18" target="G2uAnkd9o9rANrzZQ9Fx-1" edge="1">
          <mxGeometry relative="1" as="geometry">
            <mxPoint x="540" y="220" as="sourcePoint" />
            <mxPoint x="540" y="250" as="targetPoint" />
          </mxGeometry>
        </mxCell>
        <mxCell id="G2uAnkd9o9rANrzZQ9Fx-31" value="" style="endArrow=none;html=1;rounded=0;exitX=0;exitY=1;exitDx=0;exitDy=0;entryX=1;entryY=0;entryDx=0;entryDy=0;fontSize=15;labelBorderColor=none;labelBackgroundColor=none;" parent="1" source="G2uAnkd9o9rANrzZQ9Fx-17" target="G2uAnkd9o9rANrzZQ9Fx-1" edge="1">
          <mxGeometry relative="1" as="geometry">
            <mxPoint x="550" y="230" as="sourcePoint" />
            <mxPoint x="550" y="260" as="targetPoint" />
          </mxGeometry>
        </mxCell>
        <mxCell id="G2uAnkd9o9rANrzZQ9Fx-41" value="数量" style="ellipse;whiteSpace=wrap;html=1;align=center;fontSize=15;fillColor=none;labelBorderColor=none;labelBackgroundColor=none;" parent="1" vertex="1">
          <mxGeometry x="400" y="180" width="40" height="40" as="geometry" />
        </mxCell>
        <mxCell id="G2uAnkd9o9rANrzZQ9Fx-42" value="时间" style="ellipse;whiteSpace=wrap;html=1;align=center;fontSize=15;fillColor=none;labelBorderColor=none;labelBackgroundColor=none;" parent="1" vertex="1">
          <mxGeometry x="360" y="180" width="40" height="40" as="geometry" />
        </mxCell>
        <mxCell id="G2uAnkd9o9rANrzZQ9Fx-43" value="" style="endArrow=none;html=1;rounded=0;exitX=0.5;exitY=1;exitDx=0;exitDy=0;entryX=0;entryY=0;entryDx=0;entryDy=0;fontSize=15;labelBorderColor=none;labelBackgroundColor=none;" parent="1" source="G2uAnkd9o9rANrzZQ9Fx-42" target="G2uAnkd9o9rANrzZQ9Fx-23" edge="1">
          <mxGeometry relative="1" as="geometry">
            <mxPoint x="440" y="390" as="sourcePoint" />
            <mxPoint x="600" y="390" as="targetPoint" />
          </mxGeometry>
        </mxCell>
        <mxCell id="BHzmaDem7Dedp6-Bpxuv-2" value="" style="endArrow=none;html=1;rounded=0;exitX=0.5;exitY=1;exitDx=0;exitDy=0;entryX=1;entryY=0;entryDx=0;entryDy=0;fontSize=15;labelBorderColor=none;labelBackgroundColor=none;" edge="1" parent="1" source="G2uAnkd9o9rANrzZQ9Fx-41" target="G2uAnkd9o9rANrzZQ9Fx-23">
          <mxGeometry relative="1" as="geometry">
            <mxPoint x="370" y="210" as="sourcePoint" />
            <mxPoint x="370" y="255" as="targetPoint" />
          </mxGeometry>
        </mxCell>
        <mxCell id="BHzmaDem7Dedp6-Bpxuv-3" value="编号" style="ellipse;whiteSpace=wrap;html=1;align=center;fontSize=15;fillColor=none;labelBorderColor=none;labelBackgroundColor=none;" vertex="1" parent="1">
          <mxGeometry x="240" y="620" width="40" height="40" as="geometry" />
        </mxCell>
        <mxCell id="BHzmaDem7Dedp6-Bpxuv-5" value="姓名" style="ellipse;whiteSpace=wrap;html=1;align=center;fontSize=15;fillColor=none;labelBorderColor=none;labelBackgroundColor=none;" vertex="1" parent="1">
          <mxGeometry x="280" y="620" width="40" height="40" as="geometry" />
        </mxCell>
        <mxCell id="BHzmaDem7Dedp6-Bpxuv-6" value="地址" style="ellipse;whiteSpace=wrap;html=1;align=center;fontSize=15;fillColor=none;labelBorderColor=none;labelBackgroundColor=none;" vertex="1" parent="1">
          <mxGeometry x="180" y="620" width="40" height="40" as="geometry" />
        </mxCell>
        <mxCell id="BHzmaDem7Dedp6-Bpxuv-7" value="电话" style="ellipse;whiteSpace=wrap;html=1;align=center;fontSize=15;fillColor=none;labelBorderColor=none;labelBackgroundColor=none;" vertex="1" parent="1">
          <mxGeometry x="180" y="560" width="40" height="40" as="geometry" />
        </mxCell>
        <mxCell id="BHzmaDem7Dedp6-Bpxuv-13" value="编号" style="ellipse;whiteSpace=wrap;html=1;align=center;fontSize=15;fillColor=none;labelBorderColor=none;labelBackgroundColor=none;" vertex="1" parent="1">
          <mxGeometry x="180" y="400" width="40" height="40" as="geometry" />
        </mxCell>
        <mxCell id="BHzmaDem7Dedp6-Bpxuv-14" value="下单&lt;br style=&quot;font-size: 15px;&quot;&gt;时间" style="ellipse;whiteSpace=wrap;html=1;align=center;fontSize=15;fillColor=none;labelBorderColor=none;labelBackgroundColor=none;" vertex="1" parent="1">
          <mxGeometry x="260" y="340" width="40" height="40" as="geometry" />
        </mxCell>
        <mxCell id="BHzmaDem7Dedp6-Bpxuv-16" value="" style="endArrow=none;html=1;rounded=0;entryX=0;entryY=0.5;entryDx=0;entryDy=0;exitX=1;exitY=0.5;exitDx=0;exitDy=0;fontSize=15;labelBorderColor=none;labelBackgroundColor=none;" edge="1" parent="1" source="G2uAnkd9o9rANrzZQ9Fx-16" target="G2uAnkd9o9rANrzZQ9Fx-2">
          <mxGeometry relative="1" as="geometry">
            <mxPoint x="224" y="224" as="sourcePoint" />
            <mxPoint x="250" y="250" as="targetPoint" />
          </mxGeometry>
        </mxCell>
        <mxCell id="BHzmaDem7Dedp6-Bpxuv-17" value="" style="endArrow=none;html=1;rounded=0;exitX=0.5;exitY=0;exitDx=0;exitDy=0;entryX=0.5;entryY=1;entryDx=0;entryDy=0;fontSize=15;labelBorderColor=none;labelBackgroundColor=none;" edge="1" parent="1" source="BHzmaDem7Dedp6-Bpxuv-18" target="G2uAnkd9o9rANrzZQ9Fx-4">
          <mxGeometry relative="1" as="geometry">
            <mxPoint x="380" y="420" as="sourcePoint" />
            <mxPoint x="470" y="570" as="targetPoint" />
          </mxGeometry>
        </mxCell>
        <mxCell id="BHzmaDem7Dedp6-Bpxuv-26" value="n" style="edgeLabel;html=1;align=center;verticalAlign=middle;resizable=0;points=[];fontSize=15;labelBorderColor=none;labelBackgroundColor=default;" vertex="1" connectable="0" parent="BHzmaDem7Dedp6-Bpxuv-17">
          <mxGeometry x="-0.0259" relative="1" as="geometry">
            <mxPoint as="offset" />
          </mxGeometry>
        </mxCell>
        <mxCell id="BHzmaDem7Dedp6-Bpxuv-18" value="下单" style="shape=rhombus;perimeter=rhombusPerimeter;whiteSpace=wrap;html=1;align=center;fontSize=15;fillColor=none;labelBorderColor=none;labelBackgroundColor=none;" vertex="1" parent="1">
          <mxGeometry x="240" y="480" width="80" height="40" as="geometry" />
        </mxCell>
        <mxCell id="BHzmaDem7Dedp6-Bpxuv-19" value="" style="endArrow=none;html=1;rounded=0;entryX=0.5;entryY=0;entryDx=0;entryDy=0;exitX=0.5;exitY=1;exitDx=0;exitDy=0;fontSize=15;labelBorderColor=none;labelBackgroundColor=none;" edge="1" parent="1" source="BHzmaDem7Dedp6-Bpxuv-18" target="G2uAnkd9o9rANrzZQ9Fx-3">
          <mxGeometry relative="1" as="geometry">
            <mxPoint x="620" y="550" as="sourcePoint" />
            <mxPoint x="420" y="600" as="targetPoint" />
          </mxGeometry>
        </mxCell>
        <mxCell id="BHzmaDem7Dedp6-Bpxuv-27" value="1" style="edgeLabel;html=1;align=center;verticalAlign=middle;resizable=0;points=[];fontSize=15;labelBorderColor=none;labelBackgroundColor=default;" vertex="1" connectable="0" parent="BHzmaDem7Dedp6-Bpxuv-19">
          <mxGeometry x="-0.0741" y="-2" relative="1" as="geometry">
            <mxPoint y="-2" as="offset" />
          </mxGeometry>
        </mxCell>
        <mxCell id="BHzmaDem7Dedp6-Bpxuv-20" value="" style="endArrow=none;html=1;rounded=0;entryX=0.5;entryY=0;entryDx=0;entryDy=0;exitX=0.5;exitY=1;exitDx=0;exitDy=0;fontSize=15;labelBorderColor=none;labelBackgroundColor=none;" edge="1" parent="1" source="BHzmaDem7Dedp6-Bpxuv-14" target="G2uAnkd9o9rANrzZQ9Fx-4">
          <mxGeometry relative="1" as="geometry">
            <mxPoint x="300" y="390" as="sourcePoint" />
            <mxPoint x="450" y="600" as="targetPoint" />
          </mxGeometry>
        </mxCell>
        <mxCell id="BHzmaDem7Dedp6-Bpxuv-21" value="" style="endArrow=none;html=1;rounded=0;entryX=0;entryY=0.5;entryDx=0;entryDy=0;exitX=1;exitY=0.5;exitDx=0;exitDy=0;fontSize=15;labelBorderColor=none;labelBackgroundColor=none;" edge="1" parent="1" source="BHzmaDem7Dedp6-Bpxuv-13" target="G2uAnkd9o9rANrzZQ9Fx-4">
          <mxGeometry relative="1" as="geometry">
            <mxPoint x="220" y="360" as="sourcePoint" />
            <mxPoint x="270" y="390" as="targetPoint" />
          </mxGeometry>
        </mxCell>
        <mxCell id="BHzmaDem7Dedp6-Bpxuv-22" value="" style="endArrow=none;html=1;rounded=0;exitX=0.5;exitY=0;exitDx=0;exitDy=0;entryX=0.25;entryY=1;entryDx=0;entryDy=0;fontSize=15;labelBorderColor=none;labelBackgroundColor=none;" edge="1" parent="1" source="BHzmaDem7Dedp6-Bpxuv-3" target="G2uAnkd9o9rANrzZQ9Fx-3">
          <mxGeometry relative="1" as="geometry">
            <mxPoint x="-30" y="630" as="sourcePoint" />
            <mxPoint x="-30" y="610" as="targetPoint" />
          </mxGeometry>
        </mxCell>
        <mxCell id="BHzmaDem7Dedp6-Bpxuv-23" value="" style="endArrow=none;html=1;rounded=0;exitX=0.5;exitY=0;exitDx=0;exitDy=0;entryX=0.75;entryY=1;entryDx=0;entryDy=0;fontSize=15;labelBorderColor=none;labelBackgroundColor=none;" edge="1" parent="1" source="BHzmaDem7Dedp6-Bpxuv-5" target="G2uAnkd9o9rANrzZQ9Fx-3">
          <mxGeometry relative="1" as="geometry">
            <mxPoint x="270" y="630" as="sourcePoint" />
            <mxPoint x="270" y="610" as="targetPoint" />
          </mxGeometry>
        </mxCell>
        <mxCell id="BHzmaDem7Dedp6-Bpxuv-24" value="" style="endArrow=none;html=1;rounded=0;entryX=1;entryY=0.5;entryDx=0;entryDy=0;exitX=0;exitY=0.5;exitDx=0;exitDy=0;fontSize=15;labelBorderColor=none;labelBackgroundColor=none;" edge="1" parent="1" source="G2uAnkd9o9rANrzZQ9Fx-3" target="BHzmaDem7Dedp6-Bpxuv-7">
          <mxGeometry relative="1" as="geometry">
            <mxPoint x="230" y="560" as="sourcePoint" />
            <mxPoint x="230" y="580" as="targetPoint" />
          </mxGeometry>
        </mxCell>
        <mxCell id="BHzmaDem7Dedp6-Bpxuv-25" value="" style="endArrow=none;html=1;rounded=0;exitX=1;exitY=0;exitDx=0;exitDy=0;entryX=0;entryY=1;entryDx=0;entryDy=0;fontSize=15;labelBorderColor=none;labelBackgroundColor=none;" edge="1" parent="1" source="BHzmaDem7Dedp6-Bpxuv-6" target="G2uAnkd9o9rANrzZQ9Fx-3">
          <mxGeometry relative="1" as="geometry">
            <mxPoint x="290" y="650" as="sourcePoint" />
            <mxPoint x="310" y="610" as="targetPoint" />
          </mxGeometry>
        </mxCell>
        <mxCell id="BHzmaDem7Dedp6-Bpxuv-28" value="编号" style="ellipse;whiteSpace=wrap;html=1;align=center;fontSize=15;fillColor=none;labelBorderColor=none;labelBackgroundColor=none;" vertex="1" parent="1">
          <mxGeometry x="500" y="460" width="40" height="40" as="geometry" />
        </mxCell>
        <mxCell id="BHzmaDem7Dedp6-Bpxuv-30" value="数量" style="ellipse;whiteSpace=wrap;html=1;align=center;fontSize=15;fillColor=none;labelBorderColor=none;labelBackgroundColor=none;" vertex="1" parent="1">
          <mxGeometry x="580" y="400" width="40" height="40" as="geometry" />
        </mxCell>
        <mxCell id="BHzmaDem7Dedp6-Bpxuv-31" value="" style="endArrow=none;html=1;rounded=0;entryX=0.5;entryY=1;entryDx=0;entryDy=0;exitX=0.5;exitY=0;exitDx=0;exitDy=0;fontSize=15;labelBorderColor=none;labelBackgroundColor=none;" edge="1" parent="1" source="BHzmaDem7Dedp6-Bpxuv-46" target="G2uAnkd9o9rANrzZQ9Fx-1">
          <mxGeometry relative="1" as="geometry">
            <mxPoint x="460" y="300" as="sourcePoint" />
            <mxPoint x="680" y="440" as="targetPoint" />
          </mxGeometry>
        </mxCell>
        <mxCell id="BHzmaDem7Dedp6-Bpxuv-47" value="1" style="edgeLabel;html=1;align=center;verticalAlign=middle;resizable=0;points=[];fontSize=15;labelBorderColor=none;labelBackgroundColor=default;" vertex="1" connectable="0" parent="BHzmaDem7Dedp6-Bpxuv-31">
          <mxGeometry x="0.0358" y="-1" relative="1" as="geometry">
            <mxPoint as="offset" />
          </mxGeometry>
        </mxCell>
        <mxCell id="BHzmaDem7Dedp6-Bpxuv-32" value="" style="endArrow=none;html=1;rounded=0;exitX=0.5;exitY=0;exitDx=0;exitDy=0;entryX=0.5;entryY=1;entryDx=0;entryDy=0;fontSize=15;labelBorderColor=none;labelBackgroundColor=none;" edge="1" parent="1" source="BHzmaDem7Dedp6-Bpxuv-28" target="G2uAnkd9o9rANrzZQ9Fx-5">
          <mxGeometry relative="1" as="geometry">
            <mxPoint x="680" y="470" as="sourcePoint" />
            <mxPoint x="680" y="450" as="targetPoint" />
          </mxGeometry>
        </mxCell>
        <mxCell id="BHzmaDem7Dedp6-Bpxuv-33" value="" style="endArrow=none;html=1;rounded=0;exitX=1;exitY=0.5;exitDx=0;exitDy=0;entryX=0;entryY=0.5;entryDx=0;entryDy=0;fontSize=15;labelBorderColor=none;labelBackgroundColor=none;" edge="1" parent="1" source="G2uAnkd9o9rANrzZQ9Fx-5" target="BHzmaDem7Dedp6-Bpxuv-30">
          <mxGeometry relative="1" as="geometry">
            <mxPoint x="630" y="420" as="sourcePoint" />
            <mxPoint x="690" y="420" as="targetPoint" />
          </mxGeometry>
        </mxCell>
        <mxCell id="BHzmaDem7Dedp6-Bpxuv-34" value="包含" style="shape=rhombus;perimeter=rhombusPerimeter;whiteSpace=wrap;html=1;align=center;fontSize=15;fillColor=none;labelBorderColor=none;labelBackgroundColor=none;" vertex="1" parent="1">
          <mxGeometry x="360" y="400" width="80" height="40" as="geometry" />
        </mxCell>
        <mxCell id="BHzmaDem7Dedp6-Bpxuv-36" value="" style="endArrow=none;html=1;rounded=0;entryX=1;entryY=0.5;entryDx=0;entryDy=0;exitX=0;exitY=0.5;exitDx=0;exitDy=0;fontSize=15;labelBorderColor=none;labelBackgroundColor=none;" edge="1" parent="1" source="BHzmaDem7Dedp6-Bpxuv-34" target="G2uAnkd9o9rANrzZQ9Fx-4">
          <mxGeometry relative="1" as="geometry">
            <mxPoint x="260" y="460" as="sourcePoint" />
            <mxPoint x="450" y="460" as="targetPoint" />
          </mxGeometry>
        </mxCell>
        <mxCell id="BHzmaDem7Dedp6-Bpxuv-39" value="1" style="edgeLabel;html=1;align=center;verticalAlign=middle;resizable=0;points=[];fontSize=15;labelBorderColor=none;labelBackgroundColor=default;" vertex="1" connectable="0" parent="BHzmaDem7Dedp6-Bpxuv-36">
          <mxGeometry x="-0.0241" y="1" relative="1" as="geometry">
            <mxPoint as="offset" />
          </mxGeometry>
        </mxCell>
        <mxCell id="BHzmaDem7Dedp6-Bpxuv-40" value="" style="endArrow=none;html=1;rounded=0;exitX=0;exitY=0.5;exitDx=0;exitDy=0;entryX=1;entryY=0.5;entryDx=0;entryDy=0;fontSize=15;labelBorderColor=none;labelBackgroundColor=none;" edge="1" parent="1" source="G2uAnkd9o9rANrzZQ9Fx-5" target="BHzmaDem7Dedp6-Bpxuv-34">
          <mxGeometry relative="1" as="geometry">
            <mxPoint x="420" y="380" as="sourcePoint" />
            <mxPoint x="380" y="410" as="targetPoint" />
          </mxGeometry>
        </mxCell>
        <mxCell id="BHzmaDem7Dedp6-Bpxuv-43" value="n" style="edgeLabel;html=1;align=center;verticalAlign=middle;resizable=0;points=[];fontSize=15;labelBorderColor=none;labelBackgroundColor=default;" vertex="1" connectable="0" parent="BHzmaDem7Dedp6-Bpxuv-40">
          <mxGeometry x="-0.0741" relative="1" as="geometry">
            <mxPoint x="-2" as="offset" />
          </mxGeometry>
        </mxCell>
        <mxCell id="BHzmaDem7Dedp6-Bpxuv-45" value="" style="endArrow=none;html=1;rounded=0;exitX=0.5;exitY=0;exitDx=0;exitDy=0;entryX=0.5;entryY=1;entryDx=0;entryDy=0;fontSize=15;labelBorderColor=none;labelBackgroundColor=none;" edge="1" parent="1" source="G2uAnkd9o9rANrzZQ9Fx-5" target="BHzmaDem7Dedp6-Bpxuv-46">
          <mxGeometry relative="1" as="geometry">
            <mxPoint x="530" y="410" as="sourcePoint" />
            <mxPoint x="520" y="370" as="targetPoint" />
          </mxGeometry>
        </mxCell>
        <mxCell id="BHzmaDem7Dedp6-Bpxuv-48" value="n" style="edgeLabel;html=1;align=center;verticalAlign=middle;resizable=0;points=[];fontSize=15;labelBorderColor=none;labelBackgroundColor=default;" vertex="1" connectable="0" parent="BHzmaDem7Dedp6-Bpxuv-45">
          <mxGeometry x="0.0775" y="1" relative="1" as="geometry">
            <mxPoint as="offset" />
          </mxGeometry>
        </mxCell>
        <mxCell id="BHzmaDem7Dedp6-Bpxuv-46" value="引用" style="shape=rhombus;perimeter=rhombusPerimeter;whiteSpace=wrap;html=1;align=center;fontSize=15;fillColor=none;labelBorderColor=none;labelBackgroundColor=none;" vertex="1" parent="1">
          <mxGeometry x="480" y="320" width="80" height="40" as="geometry" />
        </mxCell>
      </root>
    </mxGraphModel>
  </diagram>
</mxfile>
